# xmcd CD database file
#
# Track frame offsets:
#	150
#	17807
#	49885
#	75200
#	103372
#	120951
#	139835
#	174016
#	194852
#	223315
#	238063
#
# Disc length: 3464 seconds
#
# Revision: 1
# Processed by: cddbd v1.5.1PL0 Copyright (c) Steve Scherf et al.
# Submitted via: CDex 1.51
#
DISCID=990d860b
DTITLE=Ignasi Terraza Trio - It's Coming
DYEAR=2004
DGENRE=Jazz
TTITLE0=Give Me Another
TTITLE1=I'm Getting Sentimental Over You
TTITLE2=Van Gogh
TTITLE3=Prelude to a Kiss
TTITLE4=Oscar's Will
TTITLE5=Because of You
TTITLE6=Yesterdays
TTITLE7=My Ideal
TTITLE8=Brown's Sweets
TTITLE9=Rosor
TTITLE10=It's Coming
EXTD=YEAR: 2004
EXTT0=
EXTT1=
EXTT2=
EXTT3=
EXTT4=
EXTT5=
EXTT6=
EXTT7=
EXTT8=
EXTT9=
EXTT10=
PLAYORDER=
